<svg
   version="1.1"
   id="svg1"
   width="885"
   height="747"
   viewBox="0 0 885 747"
   xmlns="http://www.w3.org/2000/svg"
   xmlns:svg="http://www.w3.org/2000/svg">
  <defs
     id="defs1" />
  <g
     id="g1">
    <path
       style="fill:#000000"
       d="m 3.7520144,744.96803 c -0.31446,-0.31447 -0.57175,-138.66088 -0.57175,-307.43647 0,-244.59471 0.25366,-306.95238 1.25,-307.29672 3.18506,-1.10075 34.8140596,-4.73029 48.4976496,-5.56528 8.38621,-0.51173 17.19006,-1.36573 19.56412,-1.89777 5.53694,-1.24085 35.316536,-3.86719 57.188236,-5.04357 28.98674,-1.55906 52.58011,-4.06811 72,-7.65686 8.79876,-1.626 13.22282,-3.34175 8.61667,-3.34175 -1.25584,0 -2.11628,-0.50118 -1.91209,-1.11374 0.47609,-1.42826 6.4191,-3.34055 15.29542,-4.92164 3.85,-0.68578 8.125,-1.681249 9.5,-2.212169 1.375,-0.53092 5.65,-1.35022 9.5,-1.82066 24.31591,-2.97124 38.01655,-4.96491 43.60841,-6.34575 3.51537,-0.86807 16.06659,-2.91326 27.89159,-4.54486 11.825,-1.6316 25.775,-3.62841 31,-4.43735 20.29267,-3.14176 49.28136,-6.60384 55.29523,-6.60384 3.4691,0 22.25935,-2.68531 41.75611,-5.96736 19.49676,-3.28204 43.32366,-7.102629 52.94866,-8.490188 9.625,-1.387559 22.45,-3.395216 28.5,-4.461461 6.05,-1.066244 15.64341,-2.446645 21.3187,-3.067557 5.67528,-0.620912 10.85028,-1.313995 11.5,-1.540184 0.64971,-0.226189 6.3563,-1.101052 12.6813,-1.94414 6.325,-0.843088 16,-2.219321 21.5,-3.058294 5.49996,-0.838974 21.69996,-2.391693 35.99996,-3.450486 14.3,-1.058794 35,-3.029719 46,-4.379834 11,-1.350115 28.1,-3.404478 38,-4.56525 9.9,-1.160773 24.975,-3.290156 33.5,-4.731964 12.3425,-2.087441 19.0946,-2.644061 33.145,-2.732377 15.5102,-0.09749 17.8863,-0.329309 19.6397,-1.916076 1.5138,-1.369936 4.131,-1.904613 10.855,-2.217627 4.8732,-0.226852 11.3353,-0.877768 14.3603,-1.44648 5.5667,-1.04656 10.5127,-0.594031 12.695,1.161511 0.6572,0.52871 2.197,0.814247 3.4217,0.634527 2.9881,-0.438496 3.7014,-2.826764 0.8442,-2.826764 -1.8473,0 -2.0034,-0.24377 -0.9609,-1.5 0.9749,-1.174606 0.9828,-1.815891 0.036,-2.956195 -1.5427,-1.859015 -0.5147,-3.543805 2.1625,-3.543805 1.1444,0 2.5804,-0.661412 3.191,-1.469805 0.739,-0.9783457 6.7224,-2.3158257 17.8946,-3.9999997 9.2314,-1.391607 17.7814,-2.530225 19,-2.530263 l 2.2156,-6.9e-5 -0.2931,310.2099297 c -0.1613,170.61545 -0.4378,310.35445 -0.6144,310.53112 -0.1767,0.17666 -2.6323,0.59491 -5.4568,0.92944 -3.816,0.45195 -5.1357,0.28029 -5.1357,-0.66806 0,-1.69381 -17.5128,-0.48347 -23.7769,1.64327 -4.4848,1.52261 -7.14,1.00676 -3.9647,-0.77024 0.9579,-0.53608 1.7416,-1.36606 1.7416,-1.84439 0,-1.13962 -6.4595,0.66351 -11.4185,3.18736 -3.2087,1.63305 -5.9261,1.9971 -15,2.00957 -7.1411,0.01 -12.8166,0.5614 -15.9612,1.55122 -4.5138,1.42081 -5.1276,1.40254 -8.1844,-0.24366 -3.2175,-1.73274 -3.3951,-1.72371 -6.7383,0.34247 -1.8885,1.16716 -4.6059,2.12212 -6.0387,2.12212 -1.4328,0 -10.3797,1.33356 -19.882,2.96347 -9.5023,1.6299 -22.6769,3.88366 -29.2769,5.00834 -6.6,1.12469 -12.675,2.2981 -13.5,2.60758 -0.825,0.30949 -3.3,0.93247 -5.5,1.38442 -2.2,0.45194 -8.275,1.95951 -13.5,3.35016 -20.1881,5.37313 -43.8042,8.28706 -86.5,10.67302 -18.157,1.01467 -35.94347,2.57992 -45.49996,4.00411 -3.575,0.53278 -8.975,1.01197 -12,1.06487 -6.03064,0.10547 -13.53003,2.33626 -11,3.27209 0.825,0.30516 2.4,0.71904 3.5,0.91973 1.73904,0.31728 1.57443,0.63104 -1.26155,2.40468 -4.2919,2.68418 -16.57069,5.00114 -33.23845,6.27196 -35.86519,2.73452 -42.67716,3.50561 -58.5,6.622 -21.74739,4.28327 -29.24025,5.38409 -44,6.46434 -19.29926,1.41249 -32.56349,2.85821 -35.89594,3.91241 -3.2415,1.02544 -34.24803,5.07682 -38.85457,5.07682 -1.45756,0 -3.06398,0.73955 -3.56982,1.64343 -0.70862,1.26624 -2.34516,1.62323 -7.13024,1.55538 -3.41579,-0.0484 -7.41178,0.38122 -8.87998,0.95478 -1.4682,0.57357 -8.67218,1.86388 -16.00885,2.86736 -7.33667,1.00349 -13.63667,2.1462 -14,2.53937 -0.36333,0.39317 1.2519,0.47076 3.5894,0.17242 4.93144,-0.6294 5.84517,0.7969 1,1.56096 -18.1667,2.86484 -26.46202,3.89738 -42.06904,5.23648 -22.95053,1.96919 -53.50029,5.23923 -60.68096,6.49529 -3.025,0.52914 -12.25,1.63886 -20.5,2.46604 -18.52023,1.85693 -42.21104,4.96969 -53.5,7.02944 -4.675,0.85298 -10.525,1.50101 -13,1.44006 -17.783016,-0.43794 -17.059456,-0.33176 -16.770976,-2.46101 0.25304,-1.86763 -0.29961,-1.99864 -8.35018,-1.97938 -8.64515,0.0207 -12.28694,1.25232 -11.3009,3.82191 0.49166,1.28125 -10.74285,6.65781 -13.91128,6.65759 -1.01249,-6e-5 -1.64862,0.55401 -1.42079,1.23751 0.58364,1.75093 -5.74985,3.7294 -11.99588,3.74731 -4.00669,0.0115 -5.25,-0.34017 -5.25,-1.48494 0,-0.96598 0.97903,-1.50545 2.75,-1.51531 1.5125,-0.008 3.42446,-0.44168 4.24879,-0.96278 0.9999,-0.63209 -1.91264,-0.94342 -8.75,-0.9353 -9.73628,0.0116 -13.20748,1.1327 -7.74879,2.50275 3.78438,0.94981 3.00188,2.22225 -1.75,2.8457 -7.21696,0.94688 -17.5768896,1.40472 -18.1782496,0.80336 z M 65.096934,727.37029 c -1.19443,-1.03005 -5.91667,-1.55659 -5.91667,-0.65973 0,0.56048 1.425,1.01905 3.16667,1.01905 1.74167,0 2.97917,-0.1617 2.75,-0.35932 z M 331.57658,695.04921 c 1.04296,-1.37076 2.84296,-2.90523 4,-3.40993 1.57706,-0.68792 1.10235,-0.79879 -1.89631,-0.44289 -2.2,0.26111 -6.60808,0.76733 -9.79573,1.12492 -5.95309,0.66783 -6.87454,1.55587 -1.9721,1.90062 5.72979,0.40292 6.26783,0.53234 6.26783,1.50768 0,0.55 -0.87344,1 -1.94098,1 -1.06754,0 -2.24884,0.49812 -2.62511,1.10693 -1.42488,2.30552 6.08865,-0.32469 7.9624,-2.78733 z m 27.60369,-6.28686 c 3.575,-0.6318 6.89199,-1.53712 7.37108,-2.01182 1.09031,-1.0803 -6.92999,-0.2155 -10.50586,1.13281 -2.49167,0.9395 -6.93195,1.51529 -14.86522,1.92763 l -3.5,0.18192 3.5,0.63722 c 1.925,0.35046 5.3,0.33205 7.5,-0.0409 2.2,-0.37297 6.925,-1.19505 10.5,-1.82685 z M 252.90944,145.12544 c -0.3323,-0.33229 -1.1948,-0.36781 -1.91667,-0.0789 -0.79773,0.31922 -0.56078,0.55618 0.60417,0.60416 1.05416,0.0434 1.64479,-0.19293 1.3125,-0.52522 z M 776.18023,23.729597 c 0,-0.55 0.45,-1 1,-1 0.55,0 1,0.45 1,1 0,0.55 -0.45,1 -1,1 -0.55,0 -1,-0.45 -1,-1 z m 47.5428,-9.930902 c -0.7883,-1.275413 0.1852,-1.702326 5.7072,-2.502956 4.9879,-0.723177 6.4005,0.480185 2.8158,2.398674 -2.4069,1.288107 -7.751,1.353494 -8.523,0.104282 z"
       id="path1" />
  </g>
</svg>
